<?xml version="1.0" encoding="UTF-8" standalone="no"?>
<svg width="1105px" height="144px" viewBox="0 0 1105 144" version="1.1" xmlns="http://www.w3.org/2000/svg" xmlns:xlink="http://www.w3.org/1999/xlink" xmlns:sketch="http://www.bohemiancoding.com/sketch/ns">
    <!-- Generator: Sketch 3.5.1 (25234) - http://www.bohemiancoding.com/sketch -->
    <title>Circle Rows &amp; Background</title>
    <desc>Created with Sketch.</desc>
    <defs></defs>
    <g id="Page-1" stroke="none" stroke-width="1" fill="none" fill-rule="evenodd" sketch:type="MSPage">
        <g id="Banner" sketch:type="MSArtboardGroup" transform="translate(-198.000000, -429.000000)" fill="#1BBDC3">
            <g id="Circle-Rows-&amp;-Background" sketch:type="MSLayerGroup" transform="translate(198.000000, 428.000000)">
                <rect id="Rectangle" fill-opacity="0.4" sketch:type="MSShapeGroup" x="0.333" y="1" width="1104" height="144"></rect>
                <g id="Bottom-Row" transform="translate(1.000000, 96.000000)" sketch:type="MSShapeGroup">
                    <circle id="Oval" cx="23.985" cy="24.928" r="23.985"></circle>
                    <circle id="Oval" cx="71.956" cy="24.928" r="23.986"></circle>
                    <circle id="Oval" cx="119.927" cy="24.928" r="23.986"></circle>
                    <circle id="Oval" cx="167.898" cy="24.928" r="23.985"></circle>
                    <circle id="Oval" cx="215.869" cy="24.928" r="23.986"></circle>
                    <circle id="Oval" cx="263.841" cy="24.928" r="23.986"></circle>
                    <circle id="Oval" cx="311.812" cy="24.928" r="23.985"></circle>
                    <circle id="Oval" cx="359.782" cy="24.928" r="23.986"></circle>
                    <circle id="Oval" cx="407.754" cy="24.928" r="23.986"></circle>
                    <circle id="Oval" cx="455.725" cy="24.928" r="23.985"></circle>
                    <circle id="Oval" cx="503.696" cy="24.928" r="23.986"></circle>
                    <circle id="Oval" cx="551.667" cy="24.928" r="23.985"></circle>
                    <circle id="Oval" cx="599.638" cy="24.928" r="23.986"></circle>
                    <circle id="Oval" cx="647.609" cy="24.928" r="23.985"></circle>
                    <circle id="Oval" cx="695.58" cy="24.928" r="23.985"></circle>
                    <circle id="Oval" cx="743.551" cy="24.928" r="23.986"></circle>
                    <circle id="Oval" cx="791.522" cy="24.928" r="23.985"></circle>
                    <circle id="Oval" cx="839.493" cy="24.928" r="23.985"></circle>
                    <circle id="Oval" cx="887.464" cy="24.928" r="23.986"></circle>
                    <circle id="Oval" cx="935.435" cy="24.928" r="23.985"></circle>
                    <circle id="Oval" cx="983.406" cy="24.928" r="23.985"></circle>
                    <circle id="Oval" cx="1031.377" cy="24.928" r="23.986"></circle>
                    <circle id="Oval" cx="1079.348" cy="24.928" r="23.985"></circle>
                </g>
                <g id="Middle-Row" transform="translate(1.000000, 48.000000)" sketch:type="MSShapeGroup">
                    <circle id="Oval" cx="23.985" cy="24.957" r="23.985"></circle>
                    <circle id="Oval" cx="71.956" cy="24.957" r="23.986"></circle>
                    <circle id="Oval" cx="119.927" cy="24.957" r="23.986"></circle>
                    <circle id="Oval" cx="167.898" cy="24.957" r="23.985"></circle>
                    <circle id="Oval" cx="215.869" cy="24.957" r="23.986"></circle>
                    <circle id="Oval" cx="263.841" cy="24.957" r="23.986"></circle>
                    <circle id="Oval" cx="311.812" cy="24.957" r="23.985"></circle>
                    <circle id="Oval" cx="359.782" cy="24.957" r="23.986"></circle>
                    <circle id="Oval" cx="407.754" cy="24.957" r="23.986"></circle>
                    <circle id="Oval" cx="455.725" cy="24.957" r="23.985"></circle>
                    <circle id="Oval" cx="503.696" cy="24.957" r="23.986"></circle>
                    <circle id="Oval" cx="551.667" cy="24.957" r="23.985"></circle>
                    <circle id="Oval" cx="599.638" cy="24.957" r="23.986"></circle>
                    <circle id="Oval" cx="647.609" cy="24.957" r="23.985"></circle>
                    <circle id="Oval" cx="695.58" cy="24.957" r="23.985"></circle>
                    <circle id="Oval" cx="743.551" cy="24.957" r="23.986"></circle>
                    <circle id="Oval" cx="791.522" cy="24.957" r="23.985"></circle>
                    <circle id="Oval" cx="839.493" cy="24.957" r="23.985"></circle>
                    <circle id="Oval" cx="887.464" cy="24.957" r="23.986"></circle>
                    <circle id="Oval" cx="935.435" cy="24.957" r="23.985"></circle>
                    <circle id="Oval" cx="983.406" cy="24.957" r="23.985"></circle>
                    <circle id="Oval" cx="1031.377" cy="24.957" r="23.986"></circle>
                    <circle id="Oval" cx="1079.348" cy="24.957" r="23.985"></circle>
                </g>
                <g id="Top-Row" transform="translate(1.000000, 0.000000)" sketch:type="MSShapeGroup">
                    <circle id="Oval" cx="23.985" cy="24.985" r="23.985"></circle>
                    <circle id="Oval" cx="71.956" cy="24.985" r="23.986"></circle>
                    <circle id="Oval" cx="119.927" cy="24.985" r="23.986"></circle>
                    <circle id="Oval" cx="167.898" cy="24.985" r="23.985"></circle>
                    <circle id="Oval" cx="215.869" cy="24.985" r="23.986"></circle>
                    <circle id="Oval" cx="263.841" cy="24.985" r="23.986"></circle>
                    <circle id="Oval" cx="311.812" cy="24.985" r="23.985"></circle>
                    <circle id="Oval" cx="359.782" cy="24.985" r="23.986"></circle>
                    <circle id="Oval" cx="407.754" cy="24.985" r="23.986"></circle>
                    <circle id="Oval" cx="455.725" cy="24.985" r="23.985"></circle>
                    <circle id="Oval" cx="503.696" cy="24.985" r="23.986"></circle>
                    <circle id="Oval" cx="551.667" cy="24.985" r="23.985"></circle>
                    <circle id="Oval" cx="599.638" cy="24.985" r="23.986"></circle>
                    <circle id="Oval" cx="647.609" cy="24.985" r="23.985"></circle>
                    <circle id="Oval" cx="695.58" cy="24.985" r="23.985"></circle>
                    <circle id="Oval" cx="743.551" cy="24.985" r="23.986"></circle>
                    <circle id="Oval" cx="791.522" cy="24.985" r="23.985"></circle>
                    <circle id="Oval" cx="839.493" cy="24.985" r="23.985"></circle>
                    <circle id="Oval" cx="887.464" cy="24.985" r="23.986"></circle>
                    <circle id="Oval" cx="935.435" cy="24.985" r="23.985"></circle>
                    <circle id="Oval" cx="983.406" cy="24.985" r="23.985"></circle>
                    <circle id="Oval" cx="1031.377" cy="24.985" r="23.986"></circle>
                    <circle id="Oval" cx="1079.348" cy="24.985" r="23.985"></circle>
                </g>
            </g>
        </g>
    </g>
</svg>