<?xml version="1.0" encoding="UTF-8" standalone="no"?>
<svg width="499px" height="500px" viewBox="0 0 499 500" version="1.1" xmlns="http://www.w3.org/2000/svg" xmlns:xlink="http://www.w3.org/1999/xlink" xmlns:sketch="http://www.bohemiancoding.com/sketch/ns">
    <!-- Generator: Sketch 3.5.1 (25234) - http://www.bohemiancoding.com/sketch -->
    <title>Tooth &amp; Circle</title>
    <desc>Created with Sketch.</desc>
    <defs></defs>
    <g id="Page-1" stroke="none" stroke-width="1" fill="none" fill-rule="evenodd" sketch:type="MSPage">
        <g id="Favicon" sketch:type="MSArtboardGroup" transform="translate(-250.000000, -250.000000)">
            <g id="Tooth-&amp;-Circle" sketch:type="MSLayerGroup" transform="translate(250.000000, 250.000000)">
                <path d="M249.467703,499.392344 C111.732057,499.392344 0.0753588517,387.733254 0.0753588517,249.997608 C0.0753588517,112.261962 111.730861,0.605263158 249.467703,0.605263158 C387.206938,0.605263158 498.860048,112.261962 498.860048,249.997608 C498.860048,387.733254 387.206938,499.392344 249.467703,499.392344 Z" id="Oval" fill="#1BBDC3" sketch:type="MSShapeGroup"></path>
                <path d="M169.869617,95.1686603 C157.093301,107.941388 154.685407,122.455742 156.91866,140.558612 C161.068182,174.165072 179.011962,204.361244 180.551435,238.614833 C181.092105,250.69378 180.388756,262.825359 178.245215,274.728469 C171.942584,309.744019 175.238038,347.142344 189.534689,379.946172 C195.867225,394.47488 204.505981,420.405502 224.942584,417.777512 C233.220096,416.7189 238.83134,410.892344 240.297847,402.815789 C241.893541,394 237.594498,387.722488 235.860048,379.495215 C231.994019,361.190191 230.417464,341.651914 231.851675,322.992823 C232.922249,309.065789 233.721292,279.022727 243.442584,267.886364 C261.270335,247.467703 293.754785,339.922249 296.809809,348.815789 C299.033493,355.297847 300.825359,362.111244 301.5,368.948565 C302.799043,382.255981 305.131579,393.045455 317.934211,399.436603 C326.714115,403.814593 336.852871,394.444976 339.848086,387.367225 C343.053828,379.802632 343.076555,371.690191 342.404306,363.66866 C340.570574,341.466507 338.313397,319.517943 333.761962,297.669856 C331.687799,287.717703 329.745215,277.710526 326.827751,267.954545 C322.37201,253.04067 312.960526,240.205742 311.721292,224.482057 C310.333732,206.814593 317.494019,188.663876 325.047847,172.757177 C333.034689,155.935407 333.455742,128.946172 324.157895,112.863636 C314.964115,96.9545455 289.760766,80.2511962 270.73445,89.6244019 C270.73445,89.6244019 256.324163,94.6124402 249.541866,114.011962 C250.508373,110.665072 234.114833,94.7488038 231.748804,93.145933 C225.527512,88.9389952 218.5311,85.0574163 211.173445,83.2990431 C195.87799,79.6351675 181.007177,84.0311005 169.869617,95.1686603 L169.869617,95.1686603 Z" id="Tooth" fill="#EAF2F5" sketch:type="MSShapeGroup"></path>
            </g>
        </g>
    </g>
</svg>