<svg height="500" viewBox="0 0 499 500" width="499" xmlns="http://www.w3.org/2000/svg"><path d="m748.860048 499.997608c0 137.735646-111.65311 249.394736-249.392345 249.394736-137.735646 0-249.392344-111.65909-249.392344-249.394736s111.655502-249.392345 249.392344-249.392345c137.739235 0 249.392345 111.656699 249.392345 249.392345zm-328.990431-154.828948c-12.776316 12.772728-15.18421 27.287082-12.950957 45.389952 4.149522 33.60646 22.093302 63.802632 23.632775 98.056221.54067 12.078947-.162679 24.210526-2.30622 36.113636-6.302631 35.01555-3.007177 72.413875 11.289474 105.217703 6.332536 14.528708 14.971292 40.45933 35.407895 37.83134 8.277512-1.058612 13.888756-6.885168 15.355263-14.961723 1.595694-8.815789-2.703349-15.093301-4.437799-23.320574-3.866029-18.305024-5.442584-37.843301-4.008373-56.502392 1.070574-13.927034 1.869617-43.970096 11.590909-55.106459 17.827751-20.418661 50.312201 72.035885 53.367225 80.929425 2.223684 6.482058 4.01555 13.295455 4.690191 20.132776 1.299043 13.307416 3.631579 24.09689 16.434211 30.488038 8.779904 4.37799 18.91866-4.991627 21.913875-12.069378 3.205742-7.564593 3.228469-15.677034 2.55622-23.698565-1.833732-22.202153-4.090909-44.150717-8.642344-65.998804-2.074163-9.952153-4.016747-19.95933-6.934211-29.715311-4.455741-14.913875-13.867225-27.748803-15.106459-43.472488-1.38756-17.667464 5.772727-35.818181 13.326555-51.72488 7.986842-16.82177 8.407895-43.811005-.889952-59.893541-9.19378-15.909091-34.397129-32.61244-53.423445-23.239234 0 0-14.410287 4.988038-21.192584 24.38756.966507-3.34689-15.427033-19.263158-17.793062-20.866029-6.221292-4.206938-13.217704-8.088517-20.575359-9.84689-15.295455-3.663876-30.166268.732057-41.303828 11.869617z" fill-rule="evenodd" transform="translate(-250 -250)"/></svg>