<?xml version="1.0" encoding="UTF-8" standalone="no"?>
<svg width="499px" height="500px" viewBox="0 0 499 500" version="1.1" xmlns="http://www.w3.org/2000/svg" xmlns:xlink="http://www.w3.org/1999/xlink" xmlns:sketch="http://www.bohemiancoding.com/sketch/ns">
    <!-- Generator: Sketch 3.5.1 (25234) - http://www.bohemiancoding.com/sketch -->
    <title>Tooth &amp; Circle</title>
    <desc>Created with Sketch.</desc>
    <defs></defs>
    <g id="Page-1" stroke="none" stroke-width="1" fill="none" fill-rule="evenodd" sketch:type="MSPage">
        <g id="Safari-Pinned-Tabs" sketch:type="MSArtboardGroup" transform="translate(-250.000000, -250.000000)" fill="#000000">
            <path d="M748.860048,499.997608 C748.860048,637.733254 637.206938,749.392344 499.467703,749.392344 C361.732057,749.392344 250.075359,637.733254 250.075359,499.997608 C250.075359,362.261962 361.730861,250.605263 499.467703,250.605263 C637.206938,250.605263 748.860048,362.261962 748.860048,499.997608 Z M419.869617,345.16866 C407.093301,357.941388 404.685407,372.455742 406.91866,390.558612 C411.068182,424.165072 429.011962,454.361244 430.551435,488.614833 C431.092105,500.69378 430.388756,512.825359 428.245215,524.728469 C421.942584,559.744019 425.238038,597.142344 439.534689,629.946172 C445.867225,644.47488 454.505981,670.405502 474.942584,667.777512 C483.220096,666.7189 488.83134,660.892344 490.297847,652.815789 C491.893541,644 487.594498,637.722488 485.860048,629.495215 C481.994019,611.190191 480.417464,591.651914 481.851675,572.992823 C482.922249,559.065789 483.721292,529.022727 493.442584,517.886364 C511.270335,497.467703 543.754785,589.922249 546.809809,598.815789 C549.033493,605.297847 550.825359,612.111244 551.5,618.948565 C552.799043,632.255981 555.131579,643.045455 567.934211,649.436603 C576.714115,653.814593 586.852871,644.444976 589.848086,637.367225 C593.053828,629.802632 593.076555,621.690191 592.404306,613.66866 C590.570574,591.466507 588.313397,569.517943 583.761962,547.669856 C581.687799,537.717703 579.745215,527.710526 576.827751,517.954545 C572.37201,503.04067 562.960526,490.205742 561.721292,474.482057 C560.333732,456.814593 567.494019,438.663876 575.047847,422.757177 C583.034689,405.935407 583.455742,378.946172 574.157895,362.863636 C564.964115,346.954545 539.760766,330.251196 520.73445,339.624402 C520.73445,339.624402 506.324163,344.61244 499.541866,364.011962 C500.508373,360.665072 484.114833,344.748804 481.748804,343.145933 C475.527512,338.938995 468.5311,335.057416 461.173445,333.299043 C445.87799,329.635167 431.007177,334.0311 419.869617,345.16866 Z" id="Tooth-&amp;-Circle" sketch:type="MSShapeGroup"></path>
        </g>
    </g>
</svg>